<?xml version="1.0" encoding="UTF-8" standalone="no"?>
<!DOCTYPE svg PUBLIC "-//W3C//DTD SVG 1.1//EN"
 "http://www.w3.org/Graphics/SVG/1.1/DTD/svg11.dtd">
<!-- Generated by graphviz version 14.1.1 (20251213.1925)
 -->
<!-- Title: InheritanceTree Pages: 1 -->
<svg width="342pt" height="213pt"
 viewBox="0.00 0.00 342.00 213.00" xmlns="http://www.w3.org/2000/svg" xmlns:xlink="http://www.w3.org/1999/xlink">
<g id="graph0" class="graph" transform="scale(1 1) rotate(0) translate(4 208.5)">
<title>InheritanceTree</title>
<polygon fill="white" stroke="none" points="-4,4 -4,-208.5 337.5,-208.5 337.5,4 -4,4"/>
<text xml:space="preserve" text-anchor="middle" x="166.75" y="-7.2" font-family="Times New Roman,serif" font-size="14.00">simple_uuid &#45; Inheritance Hierarchy</text>
<!-- SIMPLE_UUID -->
<g id="node1" class="node">
<title>SIMPLE_UUID</title>
<path fill="none" stroke="black" d="M93.25,-60.5C93.25,-60.5 12,-60.5 12,-60.5 6,-60.5 0,-54.5 0,-48.5 0,-48.5 0,-36.5 0,-36.5 0,-30.5 6,-24.5 12,-24.5 12,-24.5 93.25,-24.5 93.25,-24.5 99.25,-24.5 105.25,-30.5 105.25,-36.5 105.25,-36.5 105.25,-48.5 105.25,-48.5 105.25,-54.5 99.25,-60.5 93.25,-60.5"/>
<text xml:space="preserve" text-anchor="middle" x="52.62" y="-37.45" font-family="Times New Roman,serif" font-size="14.00">SIMPLE_UUID</text>
</g>
<!-- LIB_TESTS -->
<g id="node2" class="node">
<title>LIB_TESTS</title>
<path fill="none" stroke="black" d="M82.75,-132.5C82.75,-132.5 22.5,-132.5 22.5,-132.5 16.5,-132.5 10.5,-126.5 10.5,-120.5 10.5,-120.5 10.5,-108.5 10.5,-108.5 10.5,-102.5 16.5,-96.5 22.5,-96.5 22.5,-96.5 82.75,-96.5 82.75,-96.5 88.75,-96.5 94.75,-102.5 94.75,-108.5 94.75,-108.5 94.75,-120.5 94.75,-120.5 94.75,-126.5 88.75,-132.5 82.75,-132.5"/>
<text xml:space="preserve" text-anchor="middle" x="52.62" y="-109.45" font-family="Times New Roman,serif" font-size="14.00">LIB_TESTS</text>
</g>
<!-- TEST_SET_BASE -->
<g id="node3" class="node">
<title>TEST_SET_BASE</title>
<path fill="none" stroke="black" d="M321.5,-132.5C321.5,-132.5 225.25,-132.5 225.25,-132.5 219.25,-132.5 213.25,-126.5 213.25,-120.5 213.25,-120.5 213.25,-108.5 213.25,-108.5 213.25,-102.5 219.25,-96.5 225.25,-96.5 225.25,-96.5 321.5,-96.5 321.5,-96.5 327.5,-96.5 333.5,-102.5 333.5,-108.5 333.5,-108.5 333.5,-120.5 333.5,-120.5 333.5,-126.5 327.5,-132.5 321.5,-132.5"/>
<text xml:space="preserve" text-anchor="middle" x="273.38" y="-109.45" font-family="Times New Roman,serif" font-size="14.00">TEST_SET_BASE</text>
</g>
<!-- LIB_TESTS&#45;&gt;TEST_SET_BASE -->
<g id="edge1" class="edge">
<title>LIB_TESTS&#45;&gt;TEST_SET_BASE</title>
<path fill="none" stroke="black" d="M95.19,-114.5C95.19,-114.5 201.49,-114.5 201.49,-114.5"/>
<polygon fill="none" stroke="black" points="201.49,-118 211.49,-114.5 201.49,-111 201.49,-118"/>
</g>
<!-- TEST_APP -->
<g id="node4" class="node">
<title>TEST_APP</title>
<path fill="none" stroke="black" d="M80.5,-204.5C80.5,-204.5 24.75,-204.5 24.75,-204.5 18.75,-204.5 12.75,-198.5 12.75,-192.5 12.75,-192.5 12.75,-180.5 12.75,-180.5 12.75,-174.5 18.75,-168.5 24.75,-168.5 24.75,-168.5 80.5,-168.5 80.5,-168.5 86.5,-168.5 92.5,-174.5 92.5,-180.5 92.5,-180.5 92.5,-192.5 92.5,-192.5 92.5,-198.5 86.5,-204.5 80.5,-204.5"/>
<text xml:space="preserve" text-anchor="middle" x="52.62" y="-181.45" font-family="Times New Roman,serif" font-size="14.00">TEST_APP</text>
</g>
</g>
</svg>
