<?xml version="1.0" encoding="UTF-8" standalone="no"?>
<!DOCTYPE svg PUBLIC "-//W3C//DTD SVG 1.1//EN"
 "http://www.w3.org/Graphics/SVG/1.1/DTD/svg11.dtd">
<!-- Generated by graphviz version 14.1.1 (20251213.1925)
 -->
<!-- Title: ContractCoverage Pages: 1 -->
<svg width="746pt" height="631pt"
 viewBox="48.00 48.00 698.00 583.00" xmlns="http://www.w3.org/2000/svg" xmlns:xlink="http://www.w3.org/1999/xlink">
<g id="graph0" class="graph" transform="scale(1.33333 1.33333) rotate(0) translate(40 433.12)">
<title>ContractCoverage</title>
<polygon fill="white" stroke="none" points="-4,4 -4,-397.12 483.19,-397.12 483.19,4 -4,4"/>
<text xml:space="preserve" text-anchor="middle" x="239.59" y="-379.62" font-family="Times New Roman,serif" font-size="10.00">simple_uuid &#45; Contract Coverage</text>
<g id="clust1" class="cluster">
<title>cluster_SIMPLE_UUID</title>
<polygon fill="white" stroke="black" points="0,-38.37 0,-263.88 219,-263.88 219,-38.37 0,-38.37"/>
<text xml:space="preserve" text-anchor="middle" x="109.5" y="-246.57" font-family="Times New Roman,serif" font-size="14.00">SIMPLE_UUID</text>
</g>
<g id="clust2" class="cluster">
<title>cluster_LIB_TESTS</title>
<polygon fill="white" stroke="black" points="133.5,-303.88 133.5,-364.37 233.5,-364.37 233.5,-303.88 133.5,-303.88"/>
<text xml:space="preserve" text-anchor="middle" x="183.5" y="-347.07" font-family="Times New Roman,serif" font-size="14.00">LIB_TESTS</text>
</g>
<g id="clust3" class="cluster">
<title>cluster_TEST_APP</title>
<polygon fill="white" stroke="black" points="266,-228.38 266,-373.88 405,-373.88 405,-228.38 266,-228.38"/>
<text xml:space="preserve" text-anchor="middle" x="335.5" y="-356.58" font-family="Times New Roman,serif" font-size="14.00">TEST_APP</text>
</g>
<g id="clust4" class="cluster">
<title>cluster_legend</title>
<polygon fill="lightyellow" stroke="black" points="265.81,0 265.81,-188.25 479.19,-188.25 479.19,0 265.81,0"/>
<text xml:space="preserve" text-anchor="middle" x="372.5" y="-174.75" font-family="Times New Roman,serif" font-size="10.00">Legend</text>
</g>
<!-- SIMPLE_UUID_make -->
<g id="node1" class="node">
<title>SIMPLE_UUID_make</title>
<polygon fill="khaki" stroke="black" points="219,-239.37 165,-239.37 165,-203.37 219,-203.37 219,-239.37"/>
<text xml:space="preserve" text-anchor="middle" x="192" y="-217.5" font-family="Times New Roman,serif" font-size="10.00">make</text>
</g>
<!-- SIMPLE_UUID_new_v4 -->
<g id="node2" class="node">
<title>SIMPLE_UUID_new_v4</title>
<polygon fill="lightgray" stroke="black" points="54,-74.37 0,-74.37 0,-38.37 54,-38.37 54,-74.37"/>
<text xml:space="preserve" text-anchor="middle" x="27" y="-52.5" font-family="Times New Roman,serif" font-size="10.00">new_v4</text>
</g>
<!-- SIMPLE_UUID_make_filled -->
<g id="node3" class="node">
<title>SIMPLE_UUID_make_filled</title>
<polygon fill="lightgray" stroke="black" points="174.38,-184.37 109.63,-184.37 109.63,-148.37 174.38,-148.37 174.38,-184.37"/>
<text xml:space="preserve" text-anchor="middle" x="142" y="-162.5" font-family="Times New Roman,serif" font-size="10.00">make_filled</text>
</g>
<!-- SIMPLE_UUID_ic -->
<g id="node4" class="node">
<title>SIMPLE_UUID_ic</title>
<polygon fill="lightgray" stroke="black" points="89,-189.37 35,-189.37 35,-153.37 89,-153.37 89,-189.37"/>
<text xml:space="preserve" text-anchor="middle" x="62" y="-167.5" font-family="Times New Roman,serif" font-size="10.00">ic</text>
</g>
<!-- SIMPLE_UUID_item -->
<g id="node5" class="node">
<title>SIMPLE_UUID_item</title>
<polygon fill="lightgray" stroke="black" points="179,-99.37 125,-99.37 125,-63.37 179,-63.37 179,-99.37"/>
<text xml:space="preserve" text-anchor="middle" x="152" y="-77.5" font-family="Times New Roman,serif" font-size="10.00">item</text>
</g>
<!-- SIMPLE_UUID_random_byte -->
<g id="node6" class="node">
<title>SIMPLE_UUID_random_byte</title>
<polygon fill="lightgray" stroke="black" points="105,-129.37 35,-129.37 35,-93.37 105,-93.37 105,-129.37"/>
<text xml:space="preserve" text-anchor="middle" x="70" y="-107.5" font-family="Times New Roman,serif" font-size="10.00">random_byte</text>
</g>
<!-- LIB_TESTS_test_new_v4_length -->
<g id="node7" class="node">
<title>LIB_TESTS_test_new_v4_length</title>
<polygon fill="lightgray" stroke="black" points="233.5,-339.88 133.5,-339.88 133.5,-303.88 233.5,-303.88 233.5,-339.88"/>
<text xml:space="preserve" text-anchor="middle" x="183.5" y="-318" font-family="Times New Roman,serif" font-size="10.00">test_new_v4_length</text>
</g>
<!-- TEST_APP_make -->
<g id="node8" class="node">
<title>TEST_APP_make</title>
<polygon fill="lightcoral" stroke="black" points="405,-264.38 351,-264.38 351,-228.38 405,-228.38 405,-264.38"/>
<text xml:space="preserve" text-anchor="middle" x="378" y="-242.5" font-family="Times New Roman,serif" font-size="10.00">make</text>
</g>
<!-- TEST_APP_passed -->
<g id="node9" class="node">
<title>TEST_APP_passed</title>
<polygon fill="lightgray" stroke="black" points="330,-289.38 276,-289.38 276,-253.38 330,-253.38 330,-289.38"/>
<text xml:space="preserve" text-anchor="middle" x="303" y="-267.5" font-family="Times New Roman,serif" font-size="10.00">passed</text>
</g>
<!-- TEST_APP_failed -->
<g id="node10" class="node">
<title>TEST_APP_failed</title>
<polygon fill="lightgray" stroke="black" points="395,-344.38 341,-344.38 341,-308.38 395,-308.38 395,-344.38"/>
<text xml:space="preserve" text-anchor="middle" x="368" y="-322.5" font-family="Times New Roman,serif" font-size="10.00">failed</text>
</g>
<!-- TEST_APP_run_test -->
<g id="node11" class="node">
<title>TEST_APP_run_test</title>
<polygon fill="lightcoral" stroke="black" points="320,-349.38 266,-349.38 266,-313.38 320,-313.38 320,-349.38"/>
<text xml:space="preserve" text-anchor="middle" x="293" y="-327.5" font-family="Times New Roman,serif" font-size="10.00">run_test</text>
</g>
<!-- legend_full -->
<g id="node12" class="node">
<title>legend_full</title>
<polygon fill="palegreen" stroke="black" points="468.69,-105 354.44,-105 354.44,-64 468.69,-64 468.69,-105"/>
<text xml:space="preserve" text-anchor="middle" x="411.56" y="-87.7" font-family="Times New Roman,serif" font-size="14.00">Full Contract</text>
<text xml:space="preserve" text-anchor="middle" x="411.56" y="-71.2" font-family="Times New Roman,serif" font-size="14.00">(require + ensure)</text>
</g>
<!-- legend_partial -->
<g id="node13" class="node">
<title>legend_partial</title>
<polygon fill="khaki" stroke="black" points="479.19,-41 361.94,-41 361.94,0 479.19,0 479.19,-41"/>
<text xml:space="preserve" text-anchor="middle" x="420.56" y="-23.7" font-family="Times New Roman,serif" font-size="14.00">Partial Contract</text>
<text xml:space="preserve" text-anchor="middle" x="420.56" y="-7.2" font-family="Times New Roman,serif" font-size="14.00">(require or ensure)</text>
</g>
<!-- legend_none -->
<g id="node14" class="node">
<title>legend_none</title>
<polygon fill="lightcoral" stroke="black" points="460.94,-163.5 378.19,-163.5 378.19,-127.5 460.94,-127.5 460.94,-163.5"/>
<text xml:space="preserve" text-anchor="middle" x="419.56" y="-140.45" font-family="Times New Roman,serif" font-size="14.00">No Contract</text>
</g>
<!-- legend_attr -->
<g id="node15" class="node">
<title>legend_attr</title>
<polygon fill="lightgray" stroke="black" points="354.94,-169 290.19,-169 290.19,-128 354.94,-128 354.94,-169"/>
<text xml:space="preserve" text-anchor="middle" x="322.56" y="-151.7" font-family="Times New Roman,serif" font-size="14.00">Attribute</text>
<text xml:space="preserve" text-anchor="middle" x="322.56" y="-135.2" font-family="Times New Roman,serif" font-size="14.00">(n/a)</text>
</g>
<!-- legend_stats -->
<g id="node16" class="node">
<title>legend_stats</title>
<polygon fill="white" stroke="black" points="325.31,-107 265.81,-107 265.81,0 331.31,0 331.31,-101 325.31,-107"/>
<polyline fill="none" stroke="black" points="325.31,-107 325.31,-101"/>
<polyline fill="none" stroke="black" points="331.31,-101 325.31,-101"/>
<text xml:space="preserve" text-anchor="middle" x="298.56" y="-89.7" font-family="Times New Roman,serif" font-size="14.00">Statistics</text>
<text xml:space="preserve" text-anchor="middle" x="298.56" y="-73.2" font-family="Times New Roman,serif" font-size="14.00">Full: 0</text>
<text xml:space="preserve" text-anchor="middle" x="298.56" y="-56.7" font-family="Times New Roman,serif" font-size="14.00">Partial: 1</text>
<text xml:space="preserve" text-anchor="middle" x="298.56" y="-40.2" font-family="Times New Roman,serif" font-size="14.00">None: 2</text>
<text xml:space="preserve" text-anchor="middle" x="298.56" y="-23.7" font-family="Times New Roman,serif" font-size="14.00">Attr: 9</text>
<text xml:space="preserve" text-anchor="middle" x="298.56" y="-7.2" font-family="Times New Roman,serif" font-size="14.00">Total: 12</text>
</g>
</g>
</svg>
