<?xml version="1.0" encoding="UTF-8" standalone="no"?>
<!DOCTYPE svg PUBLIC "-//W3C//DTD SVG 1.1//EN"
 "http://www.w3.org/Graphics/SVG/1.1/DTD/svg11.dtd">
<!-- Generated by graphviz version 14.1.1 (20251213.1925)
 -->
<!-- Title: Dependencies Pages: 1 -->
<svg width="342pt" height="285pt"
 viewBox="0.00 0.00 342.00 285.00" xmlns="http://www.w3.org/2000/svg" xmlns:xlink="http://www.w3.org/1999/xlink">
<g id="graph0" class="graph" transform="scale(1 1) rotate(0) translate(4 280.5)">
<title>Dependencies</title>
<polygon fill="white" stroke="none" points="-4,4 -4,-280.5 338.25,-280.5 338.25,4 -4,4"/>
<text xml:space="preserve" text-anchor="middle" x="167.12" y="-7.2" font-family="Times New Roman,serif" font-size="14.00">simple_uuid &#45; Dependencies</text>
<!-- simple_uuid -->
<g id="node1" class="node">
<title>simple_uuid</title>
<polygon fill="lightblue" stroke="black" points="83.5,-168.5 0,-168.5 0,-132.5 83.5,-132.5 83.5,-168.5"/>
<text xml:space="preserve" text-anchor="middle" x="41.75" y="-145.45" font-family="Times New Roman,serif" font-size="14.00">simple_uuid</text>
</g>
<!-- simple_datetime -->
<g id="node2" class="node">
<title>simple_datetime</title>
<polygon fill="lightblue" stroke="black" points="334.25,-276.5 227.5,-276.5 227.5,-240.5 334.25,-240.5 334.25,-276.5"/>
<text xml:space="preserve" text-anchor="middle" x="280.88" y="-253.45" font-family="Times New Roman,serif" font-size="14.00">simple_datetime</text>
</g>
<!-- simple_uuid&#45;&gt;simple_datetime -->
<g id="edge1" class="edge">
<title>simple_uuid&#45;&gt;simple_datetime</title>
<path fill="none" stroke="black" stroke-dasharray="5,2" d="M41.25,-168.82C41.25,-199.63 41.25,-258.5 41.25,-258.5 41.25,-258.5 215.58,-258.5 215.58,-258.5"/>
<polygon fill="black" stroke="black" points="215.58,-262 225.58,-258.5 215.58,-255 215.58,-262"/>
</g>
<!-- simple_testing -->
<g id="node3" class="node">
<title>simple_testing</title>
<polygon fill="lightblue" stroke="black" points="328.62,-204.5 233.12,-204.5 233.12,-168.5 328.62,-168.5 328.62,-204.5"/>
<text xml:space="preserve" text-anchor="middle" x="280.88" y="-181.45" font-family="Times New Roman,serif" font-size="14.00">simple_testing</text>
</g>
<!-- simple_uuid&#45;&gt;simple_testing -->
<g id="edge2" class="edge">
<title>simple_uuid&#45;&gt;simple_testing</title>
<path fill="none" stroke="black" stroke-dasharray="5,2" d="M83.99,-156.5C143.08,-156.5 243.25,-156.5 243.25,-156.5 243.25,-156.5 243.25,-157.65 243.25,-157.65"/>
<polygon fill="black" stroke="black" points="239.75,-156.5 243.25,-166.5 246.75,-156.5 239.75,-156.5"/>
</g>
<!-- base -->
<g id="node4" class="node">
<title>base</title>
<polygon fill="lightgray" stroke="black" points="307.88,-132.5 253.88,-132.5 253.88,-96.5 307.88,-96.5 307.88,-132.5"/>
<text xml:space="preserve" text-anchor="middle" x="280.88" y="-109.45" font-family="Times New Roman,serif" font-size="14.00">base</text>
</g>
<!-- simple_uuid&#45;&gt;base -->
<g id="edge3" class="edge">
<title>simple_uuid&#45;&gt;base</title>
<path fill="none" stroke="black" stroke-dasharray="5,2" d="M83.74,-144.5C152.43,-144.5 281.25,-144.5 281.25,-144.5 281.25,-144.5 281.25,-143.35 281.25,-143.35"/>
<polygon fill="black" stroke="black" points="284.75,-144.5 281.25,-134.5 277.75,-144.5 284.75,-144.5"/>
</g>
<!-- testing -->
<g id="node5" class="node">
<title>testing</title>
<polygon fill="lightgray" stroke="black" points="307.88,-60.5 253.88,-60.5 253.88,-24.5 307.88,-24.5 307.88,-60.5"/>
<text xml:space="preserve" text-anchor="middle" x="280.88" y="-37.45" font-family="Times New Roman,serif" font-size="14.00">testing</text>
</g>
<!-- simple_uuid&#45;&gt;testing -->
<g id="edge4" class="edge">
<title>simple_uuid&#45;&gt;testing</title>
<path fill="none" stroke="black" stroke-dasharray="5,2" d="M41.25,-132.18C41.25,-101.37 41.25,-42.5 41.25,-42.5 41.25,-42.5 241.87,-42.5 241.87,-42.5"/>
<polygon fill="black" stroke="black" points="241.87,-46 251.87,-42.5 241.87,-39 241.87,-46"/>
</g>
</g>
</svg>
